<svg height="638" width="720" xmlns="http://www.w3.org/2000/svg">
<rect height="638" fill="#555" width="720"></rect>
<text fill="#7f7" font-family="Courier New" font-size="12" xml:space="preserve">
<tspan x="10" y="26">16 megabytes installed</tspan>
<tspan x="10" y="42"></tspan>
<tspan x="10" y="58">node_modules</tspan>
<tspan x="10" y="74">├── UNMET PEER DEPENDENCY react@&gt;=0.14.0 &lt;16.0.0</tspan>
<tspan x="10" y="90">├─┬ react-burger-menu@2.0.0 </tspan>
<tspan x="10" y="106">│ ├─┬ browserify-optional@1.0.0 </tspan>
<tspan x="10" y="122">│ │ ├─┬ ast-transform@0.0.0 </tspan>
<tspan x="10" y="138">│ │ │ ├─┬ escodegen@1.2.0 </tspan>
<tspan x="10" y="154">│ │ │ │ ├── estraverse@1.5.1 </tspan>
<tspan x="10" y="170">│ │ │ │ ├── esutils@1.0.0 </tspan>
<tspan x="10" y="186">│ │ │ │ └─┬ source-map@0.1.43 </tspan>
<tspan x="10" y="202">│ │ │ │   └── amdefine@1.0.1 </tspan>
<tspan x="10" y="218">│ │ │ ├── esprima@1.0.4 </tspan>
<tspan x="10" y="234">│ │ │ └── through@2.3.8 </tspan>
<tspan x="10" y="250">│ │ ├── ast-types@0.7.8 </tspan>
<tspan x="10" y="266">│ │ └─┬ browser-resolve@1.11.2 </tspan>
<tspan x="10" y="282">│ │   └── resolve@1.1.7 </tspan>
<tspan x="10" y="298">│ ├── classnames@2.2.5 </tspan>
<tspan x="10" y="314">│ ├── eve@0.4.2 </tspan>
<tspan x="10" y="330">│ ├─┬ prop-types@15.5.8 </tspan>
<tspan x="10" y="346">│ │ └─┬ fbjs@0.8.12 </tspan>
<tspan x="10" y="362">│ │   ├── core-js@1.2.7 </tspan>
<tspan x="10" y="378">│ │   ├─┬ isomorphic-fetch@2.2.1 </tspan>
<tspan x="10" y="394">│ │   │ ├─┬ node-fetch@1.6.3 </tspan>
<tspan x="10" y="410">│ │   │ │ ├─┬ encoding@0.1.12 </tspan>
<tspan x="10" y="426">│ │   │ │ │ └── iconv-lite@0.4.15 </tspan>
<tspan x="10" y="442">│ │   │ │ └── is-stream@1.1.0 </tspan>
<tspan x="10" y="458">│ │   │ └── whatwg-fetch@2.0.3 </tspan>
<tspan x="10" y="474">│ │   ├─┬ loose-envify@1.3.1 </tspan>
<tspan x="10" y="490">│ │   │ └── js-tokens@3.0.1 </tspan>
<tspan x="10" y="506">│ │   ├── object-assign@4.1.1 </tspan>
<tspan x="10" y="522">│ │   ├─┬ promise@7.1.1 </tspan>
<tspan x="10" y="538">│ │   │ └── asap@2.0.5 </tspan>
<tspan x="10" y="554">│ │   ├── setimmediate@1.0.5 </tspan>
<tspan x="10" y="570">│ │   └── ua-parser-js@0.7.12 </tspan>
<tspan x="10" y="586">│ └─┬ snapsvg-cjs@0.0.4 </tspan>
<tspan x="10" y="602">│   └── snapsvg@0.4.0 </tspan>
<tspan x="10" y="618">└── UNMET PEER DEPENDENCY react-dom@&gt;=0.14.0 &lt;16.0.0</tspan>
</text>
</svg>
